# Blender 3.6.5
# www.blender.org
mtllib Horn.mtl
o Horn
v 0.008499 -0.000162 0.011949
v 0.014598 -0.000170 -0.001387
v 0.006098 -0.000008 -0.013337
v -0.008499 0.000163 -0.011949
v -0.014598 0.000170 0.001387
v -0.006098 0.000008 0.013337
v 0.000598 0.112498 -0.041300
v 0.001741 0.069699 0.006511
v -0.001678 0.100956 -0.016127
v -0.001394 0.088160 -0.001556
v -0.005497 0.103161 -0.016504
v -0.008136 0.075597 0.006013
v -0.008197 0.092135 -0.002067
v -0.008540 0.101846 -0.019444
v -0.014272 0.072803 -0.001036
v -0.013122 0.089955 -0.007108
v -0.007782 0.098341 -0.021997
v -0.010534 0.062949 -0.008660
v -0.011256 0.083469 -0.011947
v -0.003982 0.096147 -0.021645
v 0.000430 0.057631 -0.009401
v -0.004145 0.079671 -0.011814
v -0.000924 0.097444 -0.018713
v 0.006731 0.060532 -0.001158
v 0.000837 0.081871 -0.006427
v 0.008120 0.031682 0.011030
v 0.005607 0.052836 0.009114
v -0.005814 0.052033 0.010147
v -0.005124 0.030788 0.012334
v -0.012894 0.050279 0.000738
v -0.012892 0.028832 0.001521
v -0.008488 0.049344 -0.009490
v -0.007339 0.027782 -0.010653
v 0.002747 0.050036 -0.010230
v 0.005994 0.028669 -0.011915
v 0.009751 0.051829 -0.001053
v 0.013685 0.030626 -0.001046
vn 0.5946 0.3145 0.7399
vn -0.3571 0.2885 0.8884
vn -0.3972 0.0930 0.9130
vn 0.5891 0.2098 0.7804
vn -0.9808 0.0404 0.1910
vn -0.6303 -0.0993 -0.7700
vn -0.5704 0.0060 -0.8214
vn -0.9906 -0.0210 0.1354
vn 0.3796 0.1017 -0.9196
vn 0.4040 0.1552 -0.9015
vn 0.4247 0.0816 -0.9016
vn 0.9888 0.1046 -0.1063
vn 0.9950 0.0310 -0.0953
vn 0.4135 0.0467 -0.9093
vn 0.9502 0.2571 -0.1762
vn 0.9590 0.2419 -0.1477
vn -0.5688 0.0436 -0.8213
vn -0.5782 0.0615 -0.8135
vn 0.7453 0.5378 0.3941
vn 0.2080 0.4927 -0.8450
vn -0.1331 0.8735 0.4682
vn -0.9938 0.0313 0.1069
vn -0.9940 0.0589 0.0920
vn 0.9708 -0.1573 -0.1814
vn -0.8765 0.4810 -0.0204
vn -0.7426 -0.2973 -0.6002
vn 0.2332 -0.6431 -0.7294
vn -0.4020 0.0582 0.9138
vn -0.4159 0.0432 0.9084
vn -0.2589 0.6324 0.7301
vn 0.6597 0.4579 0.5959
vn -0.9479 0.2860 0.1404
vn -0.7092 -0.2182 -0.6703
vn 0.3438 -0.2422 -0.9073
vn 0.9743 0.0936 -0.2049
vn 0.5881 0.0918 0.8036
vn 0.5796 0.0301 0.8143
vt 0.250000 0.445165
vt 0.413533 0.344416
vt 0.444219 0.362133
vt 0.250002 0.472892
vt 0.414227 0.155183
vt 0.250001 0.050897
vt 0.250000 0.027984
vt 0.443891 0.138058
vt 0.413533 0.344416
vt 0.414227 0.155183
vt 0.443890 0.138057
vt 0.444219 0.362132
vt 0.250003 0.050895
vt 0.071361 0.146863
vt 0.059110 0.139790
vt 0.250000 0.027984
vt 0.042154 0.130000
vt 0.042154 0.370000
vt 0.071361 0.146863
vt 0.072602 0.352421
vt 0.058743 0.360422
vt 0.059110 0.139790
vt 0.249999 0.010000
vt 0.042155 0.129999
vt 0.250000 0.010000
vt 0.250000 0.339821
vt 0.250000 0.250000
vt 0.327640 0.294825
vt 0.457848 0.130001
vt 0.457846 0.130000
vt 0.172360 0.294826
vt 0.250000 0.339821
vt 0.327640 0.294825
vt 0.327382 0.205323
vt 0.327381 0.205323
vt 0.250001 0.160757
vt 0.250001 0.160755
vt 0.172618 0.205323
vt 0.172618 0.205323
vt 0.172360 0.294826
vt 0.457846 0.370000
vt 0.457846 0.130000
vt 0.457846 0.370000
vt 0.072601 0.352420
vt 0.250000 0.445165
vt 0.250000 0.472893
vt 0.058742 0.360422
vt 0.358190 0.317574
vt 0.195542 0.376734
vt 0.334511 0.140927
vt 0.213255 0.113377
vt 0.113259 0.171052
vt 0.113106 0.304284
vt 0.250000 0.490000
vt 0.250000 0.490000
vt 0.249999 0.490001
s 1
usemtl Material.002
f 8/1/1 12/2/2 28/3/3 27/4/4
f 15/5/5 18/6/6 32/7/7 30/8/8
f 12/9/2 15/10/5 30/11/8 28/12/3
f 18/13/6 21/14/9 34/15/10 32/16/7
f 35/17/11 37/18/12 2/18/13 3/17/14
f 21/19/9 24/20/15 36/21/16 34/22/10
f 33/23/17 35/24/11 3/17/14 4/25/18
f 9/26/19 7/27/20 11/28/21
f 31/29/22 33/25/17 4/25/18 5/30/23
f 23/31/24 7/27/20 9/32/19
f 11/33/21 7/27/20 14/34/25
f 14/35/25 7/27/20 17/36/26
f 17/37/26 7/27/20 20/38/27
f 20/39/27 7/27/20 23/40/24
f 29/41/28 31/42/22 5/30/23 6/43/29
f 24/44/15 8/45/1 27/46/4 36/47/16
f 9/26/19 11/28/21 13/48/30 10/49/31
f 10/49/31 13/48/30 12/2/2 8/1/1
f 11/33/21 14/34/25 16/50/32 13/48/30
f 13/48/30 16/50/32 15/10/5 12/9/2
f 14/35/25 17/36/26 19/51/33 16/50/32
f 16/50/32 19/51/33 18/6/6 15/5/5
f 17/37/26 20/38/27 22/52/34 19/51/33
f 19/51/33 22/52/34 21/14/9 18/13/6
f 20/39/27 23/40/24 25/53/35 22/52/34
f 22/52/34 25/53/35 24/20/15 21/19/9
f 23/31/24 9/32/19 10/49/31 25/53/35
f 25/53/35 10/49/31 8/45/1 24/44/15
f 37/18/12 26/54/36 1/55/37 2/18/13
f 29/41/28 26/56/36 27/4/4 28/3/3
f 31/42/22 29/41/28 28/12/3 30/11/8
f 33/25/17 31/29/22 30/8/8 32/7/7
f 35/24/11 33/23/17 32/16/7 34/15/10
f 37/18/12 35/17/11 34/22/10 36/21/16
f 26/54/36 37/18/12 36/47/16 27/46/4
f 26/56/36 29/41/28 6/43/29 1/55/37
